#Comment line ignore any data following # character 
#Hierarchical Translation and Rotation (.htr) file 
[Header]	
#Header keywords are followed by a single value 
FileType HTR		#Single word string
DataType HTRS		#Translation followed by rotation and scale data
FileVersion 1		#integer
NumSegments 64		#integer
NumFrames 3		#integer
DataFrameRate 30		#integer, data frame rate in this file
EulerRotationOrder ZYX
CalibrationUnits mm
RotationUnits Degrees
GlobalAxisofGravity Y
BoneLengthAxis Y
ScaleFactor 1.00
[SegmentNames&Hierarchy]
#CHILD	PARENT
Pinger_Root GLOBAL
Pelvis Pinger_Root
L_Hip Pelvis
R_Hip Pelvis
Rear_Leg01 Pelvis
Spine1 Pelvis
L_Leg01 L_Hip
L_Leg02 L_Leg01
L_Leg03 L_Leg02
L_Foot L_Leg03
L_Toe1_01 L_Foot
L_Toe2_01 L_Foot
L_Toe3_01 L_Foot
planeAlignerLeft L_Foot
L_Toe1_02 L_Toe1_01
L_Toe1_03 L_Toe1_02
L_Toe2_02 L_Toe2_01
L_Toe2_03 L_Toe2_02
L_Toe3_02 L_Toe3_01
L_Toe3_03 L_Toe3_02
planeLockWeightLeft planeAlignerLeft
R_Leg01 R_Hip
R_Leg02 R_Leg01
R_Leg03 R_Leg02
R_Foot R_Leg03
planeAlignerRight R_Foot
R_Toe1_01 R_Foot
R_Toe2_01 R_Foot
R_Toe3_01 R_Foot
planeLockWeightRight planeAlignerRight
R_Toe1_02 R_Toe1_01
R_Toe1_03 R_Toe1_02
R_Toe2_02 R_Toe2_01
R_Toe2_03 R_Toe2_02
R_Toe3_02 R_Toe3_01
R_Toe3_03 R_Toe3_02
Rear_Leg02 Rear_Leg01
Rear_Leg03 Rear_Leg02
Rear_Leg04 Rear_Leg03
Rear_Foot Rear_Leg04
planeAlignerCenter Rear_Foot
Rear_Toe1_01 Rear_Foot
Rear_Toe2_01 Rear_Foot
Rear_Toe3_01 Rear_Foot
planeLockWeightCenter planeAlignerCenter
Rear_Toe1_02 Rear_Toe1_01
Rear_Toe1_03 Rear_Toe1_02
Rear_Toe2_02 Rear_Toe2_01
Rear_Toe2_03 Rear_Toe2_02
Rear_Toe3_02 Rear_Toe3_01
Rear_Toe3_03 Rear_Toe3_02
Back_Bone Spine1
Head Spine1
Motor_Bone Back_Bone
Ping_Mechanism Back_Bone
BN_LookIK Head
bottomMouth Head
L_Mouth01 Head
L_mouthFront Head
mouthGun Head
R_Mouth01 Head
R_mouthFront Head
TopMouth Head
weapon_bone Head
[BasePosition]
#SegmentName Tx, Ty, Tz, Rx, Ry, Rz, BoneLength
Pinger_Root 0.000000 0.000000 0.000000 -90.000000 0.000000 0.000000 10.000000 
Pelvis 0.000000 0.000000 0.000000 0.000000 0.000000 0.000000 10.000000 
L_Hip 0.000000 0.000000 0.000000 0.000000 0.000000 0.000000 10.000000 
R_Hip 0.000000 0.000000 0.000000 0.000000 0.000000 0.000000 10.000000 
Rear_Leg01 0.000000 0.000000 0.000000 0.000000 0.000000 0.000000 10.000000 
Spine1 0.000000 0.000000 0.000000 0.000000 0.000000 0.000000 10.000000 
L_Leg01 0.000000 0.000000 0.000000 0.000000 0.000000 0.000000 10.000000 
L_Leg02 0.000000 0.000000 0.000000 0.000000 0.000000 0.000000 10.000000 
L_Leg03 0.000000 0.000000 0.000000 0.000000 0.000000 0.000000 10.000000 
L_Foot 0.000000 0.000000 0.000000 0.000000 0.000000 0.000000 10.000000 
L_Toe1_01 0.000000 0.000000 0.000000 0.000000 0.000000 0.000000 10.000000 
L_Toe2_01 0.000000 0.000000 0.000000 0.000000 0.000000 0.000000 10.000000 
L_Toe3_01 0.000000 0.000000 0.000000 0.000000 0.000000 0.000000 10.000000 
planeAlignerLeft 0.000000 0.000000 0.000000 0.000000 0.000000 0.000000 10.000000 
L_Toe1_02 0.000000 0.000000 0.000000 0.000000 0.000000 0.000000 10.000000 
L_Toe1_03 0.000000 0.000000 0.000000 0.000000 0.000000 0.000000 10.000000 
L_Toe2_02 0.000000 0.000000 0.000000 0.000000 0.000000 0.000000 10.000000 
L_Toe2_03 0.000000 0.000000 0.000000 0.000000 0.000000 0.000000 10.000000 
L_Toe3_02 0.000000 0.000000 0.000000 0.000000 0.000000 0.000000 10.000000 
L_Toe3_03 0.000000 0.000000 0.000000 0.000000 0.000000 0.000000 10.000000 
planeLockWeightLeft 0.000000 0.000000 0.000000 0.000000 0.000000 0.000000 10.000000 
R_Leg01 0.000000 0.000000 0.000000 0.000000 0.000000 0.000000 10.000000 
R_Leg02 0.000000 0.000000 0.000000 0.000000 0.000000 0.000000 10.000000 
R_Leg03 0.000000 0.000000 0.000000 0.000000 0.000000 0.000000 10.000000 
R_Foot 0.000000 0.000000 0.000000 0.000000 0.000000 0.000000 10.000000 
planeAlignerRight 0.000000 0.000000 0.000000 0.000000 0.000000 0.000000 10.000000 
R_Toe1_01 0.000000 0.000000 0.000000 0.000000 0.000000 0.000000 10.000000 
R_Toe2_01 0.000000 0.000000 0.000000 0.000000 0.000000 0.000000 10.000000 
R_Toe3_01 0.000000 0.000000 0.000000 0.000000 0.000000 0.000000 10.000000 
planeLockWeightRight 0.000000 0.000000 0.000000 0.000000 0.000000 0.000000 10.000000 
R_Toe1_02 0.000000 0.000000 0.000000 0.000000 0.000000 0.000000 10.000000 
R_Toe1_03 0.000000 0.000000 0.000000 0.000000 0.000000 0.000000 10.000000 
R_Toe2_02 0.000000 0.000000 0.000000 0.000000 0.000000 0.000000 10.000000 
R_Toe2_03 0.000000 0.000000 0.000000 0.000000 0.000000 0.000000 10.000000 
R_Toe3_02 0.000000 0.000000 0.000000 0.000000 0.000000 0.000000 10.000000 
R_Toe3_03 0.000000 0.000000 0.000000 0.000000 0.000000 0.000000 10.000000 
Rear_Leg02 0.000000 0.000000 0.000000 0.000000 0.000000 0.000000 10.000000 
Rear_Leg03 0.000000 0.000000 0.000000 0.000000 0.000000 0.000000 10.000000 
Rear_Leg04 0.000000 0.000000 0.000000 0.000000 0.000000 0.000000 10.000000 
Rear_Foot 0.000000 0.000000 0.000000 0.000000 0.000000 0.000000 10.000000 
planeAlignerCenter 0.000000 0.000000 0.000000 0.000000 0.000000 0.000000 10.000000 
Rear_Toe1_01 0.000000 0.000000 0.000000 0.000000 0.000000 0.000000 10.000000 
Rear_Toe2_01 0.000000 0.000000 0.000000 0.000000 0.000000 0.000000 10.000000 
Rear_Toe3_01 0.000000 0.000000 0.000000 0.000000 0.000000 0.000000 10.000000 
planeLockWeightCenter 0.000000 0.000000 0.000000 0.000000 0.000000 0.000000 10.000000 
Rear_Toe1_02 0.000000 0.000000 0.000000 0.000000 0.000000 0.000000 10.000000 
Rear_Toe1_03 0.000000 0.000000 0.000000 0.000000 0.000000 0.000000 10.000000 
Rear_Toe2_02 0.000000 0.000000 0.000000 0.000000 0.000000 0.000000 10.000000 
Rear_Toe2_03 0.000000 0.000000 0.000000 0.000000 0.000000 0.000000 10.000000 
Rear_Toe3_02 0.000000 0.000000 0.000000 0.000000 0.000000 0.000000 10.000000 
Rear_Toe3_03 0.000000 0.000000 0.000000 0.000000 0.000000 0.000000 10.000000 
Back_Bone 0.000000 0.000000 0.000000 0.000000 0.000000 0.000000 10.000000 
Head 0.000000 0.000000 0.000000 0.000000 0.000000 0.000000 10.000000 
Motor_Bone 0.000000 0.000000 0.000000 0.000000 0.000000 0.000000 10.000000 
Ping_Mechanism 0.000000 0.000000 0.000000 0.000000 0.000000 0.000000 10.000000 
BN_LookIK 0.000000 0.000000 0.000000 0.000000 0.000000 0.000000 10.000000 
bottomMouth 0.000000 0.000000 0.000000 0.000000 0.000000 0.000000 10.000000 
L_Mouth01 0.000000 0.000000 0.000000 0.000000 0.000000 0.000000 10.000000 
L_mouthFront 0.000000 0.000000 0.000000 0.000000 0.000000 0.000000 10.000000 
mouthGun 0.000000 0.000000 0.000000 0.000000 0.000000 0.000000 10.000000 
R_Mouth01 0.000000 0.000000 0.000000 0.000000 0.000000 0.000000 10.000000 
R_mouthFront 0.000000 0.000000 0.000000 0.000000 0.000000 0.000000 10.000000 
TopMouth 0.000000 0.000000 0.000000 0.000000 0.000000 0.000000 10.000000 
weapon_bone 0.000000 0.000000 0.000000 0.000000 0.000000 0.000000 10.000000 
#Beginning of Data. Separated by tabs
#Fr	Tx	Ty	Tz	Rx	Ry	Rz	SF
[Pinger_Root]
66 2500.000000 0.000220 0.000000 -0.000075 -0.000000 -0.000020 2500.000000
67 2500.000000 0.000220 0.000000 -0.000075 -0.000000 -0.000020 2500.000000
68 2500.000000 0.000220 0.000000 -0.000075 -0.000000 -0.000020 2500.000000
[Pelvis]
66 213.817795 369.854675 4266.323730 -75.217331 -70.418495 67.708588 4287.660156
67 199.536514 366.484589 4297.876465 -75.291199 -71.393349 67.814514 4318.085938
68 185.420578 374.502411 4326.889160 -75.438873 -72.915848 67.883217 4347.021973
[L_Hip]
66 5.766392 125.831482 872.656799 159.805878 -55.990459 117.443153 881.701050
67 5.766392 125.831482 872.656799 159.759369 -54.826866 118.006271 881.701050
68 5.766392 125.831482 872.656799 159.733459 -53.663197 118.552048 881.701050
[R_Hip]
66 5.765438 125.836372 -872.654907 36.628323 59.437809 123.578857 881.699829
67 5.765438 125.836372 -872.654907 36.879658 58.413254 123.867149 881.699829
68 5.765438 125.836372 -872.654907 37.114372 57.388000 124.139015 881.699829
[Rear_Leg01]
66 -192.298416 -925.602966 -0.001907 171.743896 7.168592 -165.950943 945.367432
67 -192.298416 -925.602966 -0.001907 171.748932 6.967308 -166.020325 945.367432
68 -192.298416 -925.602966 -0.001907 171.607239 6.709299 -165.534821 945.367432
[Spine1]
66 290.604584 5.007505 0.000477 4.920096 -5.039411 5.629526 290.647736
67 290.604584 5.007505 0.000477 5.013947 -4.892345 6.425672 290.647736
68 290.604584 5.007505 0.000477 5.232642 -4.619305 7.749957 290.647736
[L_Leg01]
66 761.932007 -0.002384 -0.069261 6.134004 -32.692730 -3.006567 761.932068
67 761.932007 -0.002384 -0.069261 7.673766 -31.446287 -4.270300 761.932068
68 761.932007 -0.002384 -0.069261 9.161311 -30.171986 -5.478384 761.932068
[L_Leg02]
66 1441.140503 -0.000954 -0.000715 0.316986 -0.038462 -115.419052 1441.140503
67 1441.140503 -0.000954 -0.000715 0.255989 -0.026121 -114.239296 1441.140503
68 1441.140503 -0.000954 -0.000715 0.250441 -0.035690 -113.661224 1441.140503
[L_Leg03]
66 1686.963989 -0.000715 -0.000954 -0.004568 0.000850 111.079765 1686.963989
67 1686.963989 -0.000715 -0.000954 -0.005262 0.001885 111.432190 1686.963989
68 1686.963989 -0.000715 -0.000954 -0.005949 0.002925 111.784607 1686.963989
[L_Foot]
66 3041.570068 -30.715107 11.297464 -0.126753 10.525947 42.243587 3041.746094
67 3041.570068 -30.715107 11.297464 0.295778 10.807038 42.464432 3041.746094
68 3041.570068 -30.715107 11.297464 0.719802 11.086513 42.687592 3041.746094
[L_Toe1_01]
66 -188.216690 -224.732346 -21.137953 92.595993 -5.786489 -171.633469 293.899567
67 -188.216690 -224.732346 -21.137953 92.742661 -5.899369 -171.881119 293.899567
68 -188.216690 -224.732346 -21.137953 92.889832 -6.011614 -172.129074 293.899567
[L_Toe2_01]
66 200.746536 -219.926590 148.838394 -87.698090 -23.128574 -46.651905 332.896027
67 200.746536 -219.926590 148.838394 -88.049599 -23.544907 -47.159855 332.896027
68 200.746536 -219.926590 148.838394 -88.283516 -23.837784 -47.705315 332.896027
[L_Toe3_01]
66 188.832520 -219.859131 -191.078659 -101.918373 18.752457 -57.965691 347.140900
67 188.832520 -219.859131 -191.078659 -101.696022 18.227768 -58.901878 347.140900
68 188.832520 -219.859131 -191.078659 -101.465424 17.706718 -59.837265 347.140900
[planeAlignerLeft]
66 55.874947 -544.217163 64.501251 169.400360 -80.350967 92.989845 550.867249
67 54.094379 -548.281921 68.201363 169.357193 -79.890877 92.675949 555.149231
68 52.313824 -552.346558 71.901451 169.302170 -79.430870 92.373650 559.458069
[L_Toe1_02]
66 413.761139 0.000477 0.000000 0.001384 -25.923368 0.001384 413.761139
67 413.761139 0.000477 0.000000 0.001384 -25.929337 0.001384 413.761139
68 413.761139 0.000477 0.000000 0.001384 -25.935308 0.001384 413.761139
[L_Toe1_03]
66 464.317322 0.000358 -0.000089 0.004112 56.833546 0.004112 464.317322
67 464.317322 0.000358 -0.000089 0.004092 56.669540 0.004092 464.317322
68 464.317322 0.000358 -0.000089 0.004073 56.505535 0.004073 464.317322
[L_Toe2_02]
66 342.235809 -0.000477 0.000238 0.001185 -74.331619 0.001185 342.235809
67 342.235809 -0.000477 0.000238 0.001185 -74.180008 0.001185 342.235809
68 342.235809 -0.000477 0.000238 0.001185 -74.028397 0.001185 342.235809
[L_Toe2_03]
66 420.210846 -0.000715 0.000000 -179.907822 89.298073 -179.904327 420.210846
67 420.210846 -0.000715 0.000000 0.000000 89.777069 0.003500 420.210846
68 420.210846 -0.000715 0.000000 0.000000 89.747437 0.003496 420.210846
[L_Toe3_02]
66 329.270111 0.000954 0.000000 0.001730 -82.117310 0.001730 329.270111
67 329.270111 0.000954 0.000000 0.001545 -82.018715 0.001545 329.270111
68 329.270111 0.000954 0.000000 0.001361 -81.920273 0.001361 329.270111
[L_Toe3_03]
66 439.137451 -0.001907 0.000954 -179.998337 70.728119 -179.994781 439.137451
67 439.137451 -0.001907 0.000954 -179.998215 71.398659 -179.994675 439.137451
68 439.137451 -0.001907 0.000954 -179.998077 72.069397 -179.994537 439.137451
[planeLockWeightLeft]
66 1000.000122 0.000000 -0.000283 -0.011826 -0.004376 0.005620 1000.000122
67 1000.000122 0.000000 -0.000288 -0.011826 -0.004376 0.005620 1000.000122
68 1000.000122 0.000000 -0.000293 -0.011826 -0.004376 0.005620 1000.000122
[R_Leg01]
66 761.455627 -0.001907 -0.000358 136.542358 -30.359552 24.719473 761.455688
67 761.455627 -0.001907 -0.000358 135.222687 -28.640074 25.196548 761.455688
68 761.455627 -0.001907 -0.000358 133.565659 -26.661114 26.124264 761.455688
[R_Leg02]
66 1441.140625 0.000000 -0.000238 -1.855011 -0.517945 -121.683319 1441.140625
67 1441.140625 0.000000 -0.000238 -1.759565 -0.446131 -119.849686 1441.140625
68 1441.140625 0.000000 -0.000238 -1.674688 -0.389506 -118.475967 1441.140625
[R_Leg03]
66 1686.963989 0.000954 0.001431 0.101035 -0.057444 137.580063 1686.963989
67 1686.963989 0.000954 0.001431 0.098046 -0.054658 136.650909 1686.963989
68 1686.963989 0.000954 0.001431 0.095013 -0.051920 135.722015 1686.963989
[R_Foot]
66 3041.560059 -30.531288 -11.204481 -7.782750 -14.516136 45.386345 3041.734131
67 3041.560059 -30.531288 -11.204481 -7.229003 -15.200634 44.986149 3041.734131
68 3041.560059 -30.531288 -11.204481 -6.625020 -15.998706 45.159210 3041.734131
[planeAlignerRight]
66 -127.127899 -574.038696 -312.926331 -36.587143 -71.457870 -64.273407 666.036621
67 -127.129364 -574.037292 -312.924744 -36.586483 -71.449944 -64.278122 666.034973
68 -127.130806 -574.036011 -312.923126 -36.585770 -71.442001 -64.282837 666.033386
[R_Toe1_01]
66 -188.383347 -224.864899 21.052242 75.621468 -0.546202 -172.607285 294.101532
67 -188.383347 -224.864899 21.052242 75.731796 -0.529272 -172.641434 294.101532
68 -188.383347 -224.864899 21.052242 75.842102 -0.512277 -172.675552 294.101532
[R_Toe2_01]
66 200.637817 -220.002121 -148.787384 -94.438095 31.995380 -59.130730 332.857574
67 200.637817 -220.002121 -148.787384 -94.196358 32.074287 -59.137432 332.857574
68 200.637817 -220.002121 -148.787384 -93.954384 32.153214 -59.143723 332.857574
[R_Toe3_01]
66 188.606735 -220.092957 191.126343 -71.212242 -7.795168 -73.544067 347.192566
67 188.606735 -220.092957 191.126343 -71.377663 -7.848986 -73.562531 347.192566
68 188.606735 -220.092957 191.126343 -71.543098 -7.902860 -73.580833 347.192566
[planeLockWeightRight]
66 999.999817 0.000000 -0.000168 -0.011823 -0.004379 -0.000027 999.999817
67 999.999817 0.000000 -0.000163 -0.011823 -0.004379 -0.000027 999.999817
68 999.999817 0.000000 -0.000158 -0.011823 -0.004379 -0.000027 999.999817
[R_Toe1_02]
66 413.762085 0.000477 -0.000119 0.001394 -24.667917 0.001394 413.762085
67 413.762085 0.000477 -0.000119 0.001394 -24.667353 0.001394 413.762085
68 413.762085 0.000477 -0.000119 0.001394 -24.666792 0.001394 413.762085
[R_Toe1_03]
66 464.317810 0.000000 0.001088 0.006611 69.548210 0.006611 464.317810
67 464.317810 0.000000 0.001088 0.006612 69.551224 0.006612 464.317810
68 464.317810 0.000000 0.001088 0.006613 69.554214 0.006613 464.317810
[R_Toe2_02]
66 342.234741 -0.000954 0.000238 0.001197 -67.215675 0.001197 342.234741
67 342.234741 -0.000954 0.000238 0.001197 -67.216057 0.001197 342.234741
68 342.234741 -0.000954 0.000238 0.001197 -67.216423 0.001197 342.234741
[R_Toe2_03]
66 420.210846 0.000715 -0.000268 0.008164 73.470123 0.008164 420.210846
67 420.210846 0.000715 -0.000268 0.008178 73.497292 0.008178 420.210846
68 420.210846 0.000715 -0.000268 0.008191 73.524467 0.008191 420.210846
[R_Toe3_02]
66 329.270355 -0.000477 -0.000954 0.001185 -74.446144 0.001185 329.270355
67 329.270355 -0.000477 -0.000954 0.001184 -74.450989 0.001184 329.270355
68 329.270355 -0.000477 -0.000954 0.001184 -74.455864 0.001184 329.270355
[R_Toe3_03]
66 439.137939 0.000238 0.001431 -0.011343 83.129539 -0.007840 439.137939
67 439.137939 0.000238 0.001431 -0.011359 83.140823 -0.007856 439.137939
68 439.137939 0.000238 0.001431 -0.011375 83.152214 -0.007872 439.137939
[Rear_Leg02]
66 1162.777710 -0.029802 0.005960 -1.944944 7.298467 -109.598305 1162.777710
67 1162.777710 -0.029802 0.005960 -2.125332 7.950908 -110.714828 1162.777710
68 1162.777710 -0.029802 0.005960 -2.042084 7.654911 -112.055519 1162.777710
[Rear_Leg03]
66 607.192505 -0.013351 -0.073195 0.010582 -0.004917 66.194984 607.192505
67 607.192505 -0.013351 -0.073195 0.010585 -0.004911 66.136002 607.192505
68 607.192505 -0.013351 -0.073195 0.010587 -0.004906 66.077042 607.192505
[Rear_Leg04]
66 995.874512 -0.020504 -0.011921 -0.043559 -0.018015 62.125317 995.874573
67 995.874512 -0.020504 -0.011921 -0.043549 -0.018040 62.060684 995.874573
68 995.874512 -0.020504 -0.011921 -0.043539 -0.018065 61.996052 995.874573
[Rear_Foot]
66 3096.176270 -0.067472 -0.041425 87.833252 83.365608 -87.272514 3096.176270
67 3096.176270 -0.067472 -0.041425 83.979210 82.724052 -91.217415 3096.176270
68 3096.176270 -0.067472 -0.041425 82.578781 82.862518 -92.488457 3096.176270
[planeAlignerCenter]
66 -6.786761 -94.576149 -551.510864 8.969522 -0.001525 179.998215 559.602478
67 -6.936526 -103.034103 -566.567871 9.354353 -0.001519 179.998215 575.902161
68 -7.086290 -111.491982 -581.624756 9.739109 -0.001513 179.998199 592.256714
[Rear_Toe1_01]
66 0.653352 83.966492 -371.173737 0.420497 19.313343 90.845886 380.553192
67 0.653352 83.966492 -371.173737 0.441351 20.676025 90.855751 380.553192
68 0.653352 83.966492 -371.173737 0.462667 22.039465 90.866241 380.553192
[Rear_Toe2_01]
66 178.200760 -294.826019 -362.060547 -5.950440 24.968107 -67.959946 499.765686
67 178.200760 -294.826019 -362.060547 -6.199569 25.030373 -68.210030 499.765686
68 178.200760 -294.826019 -362.060547 -6.449118 25.091646 -68.460526 499.765686
[Rear_Toe3_01]
66 -153.359680 -308.780914 -362.060852 2.804250 23.469942 -111.495560 499.952881
67 -153.359680 -308.780914 -362.060852 2.904808 23.387613 -111.347755 499.952881
68 -153.359680 -308.780914 -362.060852 3.005075 23.305050 -111.200203 499.952881
[planeLockWeightCenter]
66 1000.000244 0.000496 -0.000093 -0.011814 -0.004373 -0.000015 1000.000244
67 1000.000244 0.000483 -0.000091 -0.011814 -0.004373 -0.000015 1000.000244
68 1000.000244 0.000470 -0.000088 -0.011814 -0.004373 -0.000015 1000.000244
[Rear_Toe1_02]
66 379.707825 0.194073 0.000477 -0.002650 -32.440941 -0.002650 379.707855
67 379.707825 0.194073 0.000477 -0.002651 -32.388130 -0.002651 379.707855
68 379.707825 0.194073 0.000477 -0.002652 -32.335312 -0.002652 379.707855
[Rear_Toe1_03]
66 500.129700 0.165701 0.000119 -179.982651 85.779839 -179.986145 500.129761
67 500.129700 0.165701 0.000119 -179.981888 85.971725 -179.985397 500.129761
68 500.129700 0.165701 0.000119 -179.981094 86.163452 -179.984589 500.129761
[Rear_Toe2_02]
66 340.494507 0.000238 -0.000954 0.001211 -61.783665 0.001211 340.494507
67 340.494507 0.000238 -0.000954 0.001215 -60.422039 0.001215 340.494507
68 340.494507 0.000238 -0.000954 0.001219 -59.060230 0.001219 340.494507
[Rear_Toe2_03]
66 433.103577 0.000000 0.000238 0.004328 58.515347 0.004328 433.103546
67 433.103577 0.000000 0.000238 0.004106 56.758892 0.004106 433.103546
68 433.103577 0.000000 0.000238 0.003906 55.002068 0.003906 433.103546
[Rear_Toe3_02]
66 340.494141 -0.000358 -0.000477 -0.002429 -56.354469 -0.002429 340.494171
67 340.494141 -0.000358 -0.000477 -0.002441 -54.733406 -0.002441 340.494171
68 340.494141 -0.000358 -0.000477 -0.002452 -53.112003 -0.002452 340.494171
[Rear_Toe3_03]
66 433.103577 0.001431 -0.000238 0.000100 51.682629 -0.003602 433.103546
67 433.103577 0.001431 -0.000238 0.000190 49.786121 -0.003535 433.103546
68 433.103577 0.001431 -0.000238 0.000274 47.888569 -0.003475 433.103546
[Back_Bone]
66 1312.175781 -701.934692 0.000954 1.716742 -1.218158 -87.694206 1488.125488
67 1312.175781 -701.934692 0.000954 1.707891 -1.165110 -87.488235 1488.125488
68 1312.175781 -701.934692 0.000954 1.699231 -1.112032 -87.282295 1488.125488
[Head]
66 1406.159424 809.709290 0.001431 0.622588 -3.948916 7.294389 1622.625488
67 1406.159424 809.709290 0.001431 0.564897 -3.724669 7.338982 1622.625488
68 1406.159424 809.709290 0.001431 0.507394 -3.500379 7.383338 1622.625488
[Motor_Bone]
66 1158.364380 -417.834747 0.000477 -0.583240 2.827894 -103.156105 1231.419434
67 1158.364380 -417.834747 0.000477 0.001230 -0.033888 -106.020905 1231.419434
68 1158.364380 -417.834747 0.000477 2.853603 -2.893620 -108.875916 1231.419434
[Ping_Mechanism]
66 1304.918335 -457.898560 33.751434 0.000103 -0.000053 82.120995 1383.337280
67 1299.237061 -457.356903 32.054188 0.000103 -0.000053 82.120995 1377.758911
68 1293.555664 -456.815216 30.356928 0.000103 -0.000053 82.120995 1372.183594
[BN_LookIK]
66 193.241119 1380.371704 -0.002861 0.000000 89.965736 -31.038179 1393.832153
67 193.241119 1380.371704 -0.002861 0.000000 89.965736 -31.038179 1393.832153
68 193.241119 1380.371704 -0.002861 0.000000 89.965736 -31.038179 1393.832153
[bottomMouth]
66 -435.092926 615.759399 -0.000954 -0.000022 0.000016 73.527184 753.966492
67 -435.092926 615.759399 -0.000954 -0.000022 0.000016 73.527184 753.966492
68 -435.092926 615.759399 -0.000954 -0.000022 0.000016 73.527184 753.966492
[L_Mouth01]
66 554.440979 7.658243 838.222046 150.204178 23.759130 109.605339 1005.027161
67 554.440979 7.658243 838.222046 150.204178 23.759130 109.605339 1005.027161
68 554.440979 7.658243 838.222046 150.204178 23.759130 109.605339 1005.027161
[L_mouthFront]
66 551.629089 934.514771 339.150421 0.000081 2.804060 79.119301 1136.941284
67 551.629089 934.514771 339.150421 0.000081 2.804060 79.119301 1136.941284
68 551.629089 934.514771 339.150421 0.000081 2.804060 79.119301 1136.941284
[mouthGun]
66 55.332661 1627.420898 0.000000 0.000023 0.000009 -11.038128 1628.361328
67 55.332661 1627.420898 0.000000 0.000023 0.000009 -11.038128 1628.361328
68 55.332661 1627.420898 0.000000 0.000023 0.000009 -11.038128 1628.361328
[R_Mouth01]
66 554.442383 7.659197 -838.223938 29.795891 -23.759109 109.605331 1005.029541
67 554.442383 7.659197 -838.223938 29.795891 -23.759109 109.605331 1005.029541
68 554.442383 7.659197 -838.223938 29.795891 -23.759109 109.605331 1005.029541
[R_mouthFront]
66 551.629089 934.514282 -339.151367 0.000029 -2.803930 79.119133 1136.941162
67 551.629089 934.514282 -339.151367 0.000029 -2.803930 79.119133 1136.941162
68 551.629089 934.514282 -339.151367 0.000029 -2.803930 79.119133 1136.941162
[TopMouth]
66 461.269867 -56.106091 -0.008583 -0.000059 -0.000268 92.025169 464.669525
67 461.269867 -56.106091 -0.008583 -0.000059 -0.000268 92.025169 464.669525
68 461.269867 -56.106091 -0.008583 -0.000059 -0.000268 92.025169 464.669525
[weapon_bone]
66 -987.239868 1448.372803 0.001431 0.000000 89.965736 -31.038221 1752.833740
67 -987.239868 1448.372803 0.001431 0.000000 89.965736 -31.038221 1752.833740
68 -987.239868 1448.372803 0.001431 0.000000 89.965736 -31.038221 1752.833740
